<svg xmlns="http://www.w3.org/2000/svg" width="680" viewBox="0 0 680 1820" style="background:#ffffff; font-family: Arial, sans-serif;">
<defs>
  <marker id="arrow" viewBox="0 0 10 10" refX="8" refY="5" markerWidth="6" markerHeight="6" orient="auto-start-reverse">
    <path d="M2 1L8 5L2 9" fill="none" stroke="#888780" stroke-width="1.5" stroke-linecap="round" stroke-linejoin="round"/>
  </marker>
  <marker id="open" viewBox="0 0 10 10" refX="8" refY="5" markerWidth="8" markerHeight="8" orient="auto-start-reverse">
    <path d="M2 1L8 5L2 9" fill="none" stroke="#888780" stroke-width="1.5" stroke-linecap="round" stroke-linejoin="round"/>
  </marker>
  <marker id="tri" viewBox="0 0 10 10" refX="9" refY="5" markerWidth="8" markerHeight="8" orient="auto-start-reverse">
    <path d="M1 1L9 5L1 9Z" fill="#ffffff" stroke="#888780" stroke-width="1.2"/>
  </marker>
  <marker id="blue-arrow" viewBox="0 0 10 10" refX="8" refY="5" markerWidth="6" markerHeight="6" orient="auto-start-reverse">
    <path d="M2 1L8 5L2 9" fill="none" stroke="#378ADD" stroke-width="1.5" stroke-linecap="round" stroke-linejoin="round"/>
  </marker>
</defs>

<!-- package labels -->
<text font-size="12" x="40" y="18" fill="#888780" font-style="italic" font-family="Arial">model</text>
<text font-size="12" x="40" y="258" fill="#888780" font-style="italic" font-family="Arial">app</text>
<text font-size="12" x="40" y="518" fill="#888780" font-style="italic" font-family="Arial">db</text>
<text font-size="12" x="40" y="668" fill="#888780" font-style="italic" font-family="Arial">repository</text>
<text font-size="12" x="40" y="1008" fill="#888780" font-style="italic" font-family="Arial">controller</text>

<!-- ═══ MODEL ═══ -->

<!-- Priority enum -->
<rect x="40" y="26" width="160" height="96" rx="6" fill="#E1F5EE" stroke="#0F6E56" stroke-width="0.5"/>
<rect x="40" y="26" width="160" height="22" rx="6" fill="#1D9E75" opacity="0.6"/>
<rect x="40" y="36" width="160" height="12" fill="#1D9E75" opacity="0.6"/>
<text font-size="12" x="120" y="40" text-anchor="middle" dominant-baseline="central" fill="#085041" font-family="Arial">«enumeration»</text>
<text font-size="14" font-weight="500" x="120" y="58" text-anchor="middle" dominant-baseline="central" fill="#04342C" font-family="Arial">Priority</text>
<line x1="40" y1="66" x2="200" y2="66" stroke="#9FE1CB" stroke-width="0.5"/>
<text font-size="12" x="52" y="80" dominant-baseline="central" fill="#085041" font-family="Arial">CRITICAL</text>
<text font-size="12" x="52" y="94" dominant-baseline="central" fill="#085041" font-family="Arial">HIGH</text>
<text font-size="12" x="52" y="108" dominant-baseline="central" fill="#085041" font-family="Arial">MEDIUM · LOW · MINIMAL</text>

<!-- Task -->
<rect x="220" y="26" width="200" height="200" rx="6" fill="#EEEDFE" stroke="#534AB7" stroke-width="0.5"/>
<rect x="220" y="26" width="200" height="22" rx="6" fill="#534AB7" opacity="0.6"/>
<rect x="220" y="36" width="200" height="12" fill="#534AB7" opacity="0.6"/>
<text font-size="14" font-weight="500" x="320" y="40" text-anchor="middle" dominant-baseline="central" fill="#26215C" font-family="Arial">Task</text>
<line x1="220" y1="48" x2="420" y2="48" stroke="#AFA9EC" stroke-width="0.5"/>
<text font-size="12" x="232" y="63" dominant-baseline="central" fill="#3C3489" font-family="Arial">- id : int</text>
<text font-size="12" x="232" y="78" dominant-baseline="central" fill="#3C3489" font-family="Arial">- title : String</text>
<text font-size="12" x="232" y="93" dominant-baseline="central" fill="#3C3489" font-family="Arial">- notes : String</text>
<text font-size="12" x="232" y="108" dominant-baseline="central" fill="#3C3489" font-family="Arial">- priority : Priority</text>
<text font-size="12" x="232" y="123" dominant-baseline="central" fill="#3C3489" font-family="Arial">- category : String</text>
<text font-size="12" x="232" y="138" dominant-baseline="central" fill="#3C3489" font-family="Arial">- dueDate : LocalDate</text>
<text font-size="12" x="232" y="153" dominant-baseline="central" fill="#3C3489" font-family="Arial">- isCompleted : boolean</text>
<line x1="220" y1="163" x2="420" y2="163" stroke="#AFA9EC" stroke-width="0.5"/>
<text font-size="12" x="232" y="178" dominant-baseline="central" fill="#3C3489" font-family="Arial">+ getId() : int</text>
<text font-size="12" x="232" y="192" dominant-baseline="central" fill="#3C3489" font-family="Arial">+ setCompleted(boolean)</text>
<text font-size="12" x="232" y="206" dominant-baseline="central" fill="#3C3489" font-family="Arial">+ toString() : String</text>

<!-- User -->
<rect x="440" y="26" width="200" height="146" rx="6" fill="#EEEDFE" stroke="#534AB7" stroke-width="0.5"/>
<rect x="440" y="26" width="200" height="22" rx="6" fill="#534AB7" opacity="0.6"/>
<rect x="440" y="36" width="200" height="12" fill="#534AB7" opacity="0.6"/>
<text font-size="14" font-weight="500" x="540" y="40" text-anchor="middle" dominant-baseline="central" fill="#26215C" font-family="Arial">User</text>
<line x1="440" y1="48" x2="640" y2="48" stroke="#AFA9EC" stroke-width="0.5"/>
<text font-size="12" x="452" y="63" dominant-baseline="central" fill="#3C3489" font-family="Arial">- id : int  (final)</text>
<text font-size="12" x="452" y="78" dominant-baseline="central" fill="#3C3489" font-family="Arial">- username : String  (final)</text>
<text font-size="12" x="452" y="93" dominant-baseline="central" fill="#3C3489" font-family="Arial">- displayName : String  (final)</text>
<line x1="440" y1="103" x2="640" y2="103" stroke="#AFA9EC" stroke-width="0.5"/>
<text font-size="12" x="452" y="118" dominant-baseline="central" fill="#3C3489" font-family="Arial">+ getId() : int</text>
<text font-size="12" x="452" y="133" dominant-baseline="central" fill="#3C3489" font-family="Arial">+ getUsername() : String</text>
<text font-size="12" x="452" y="148" dominant-baseline="central" fill="#3C3489" font-family="Arial">+ getDisplayName() : String</text>

<!-- Task uses Priority -->
<line x1="220" y1="74" x2="200" y2="74" stroke="#888780" stroke-width="0.8" stroke-dasharray="4 3" marker-end="url(#open)"/>
<text font-size="12" x="212" y="68" text-anchor="middle" fill="#888780" font-family="Arial">uses</text>

<!-- ═══ APP ═══ -->

<!-- HeteroApp -->
<rect x="40" y="266" width="190" height="120" rx="6" fill="#FAEEDA" stroke="#854F0B" stroke-width="0.5"/>
<rect x="40" y="266" width="190" height="22" rx="6" fill="#854F0B" opacity="0.5"/>
<rect x="40" y="276" width="190" height="12" fill="#854F0B" opacity="0.5"/>
<text font-size="14" font-weight="500" x="135" y="280" text-anchor="middle" dominant-baseline="central" fill="#412402" font-family="Arial">HeteroApp</text>
<text font-size="12" x="52" y="295" dominant-baseline="central" fill="#633806" font-family="Arial">extends Application</text>
<line x1="40" y1="302" x2="230" y2="302" stroke="#FAC775" stroke-width="0.5"/>
<text font-size="12" x="52" y="317" dominant-baseline="central" fill="#633806" font-family="Arial">- primaryStage : Stage {static}</text>
<line x1="40" y1="328" x2="230" y2="328" stroke="#FAC775" stroke-width="0.5"/>
<text font-size="12" x="52" y="343" dominant-baseline="central" fill="#633806" font-family="Arial">+ start(Stage)</text>
<text font-size="12" x="52" y="358" dominant-baseline="central" fill="#633806" font-family="Arial">+ showLogin()  + showMain()</text>
<text font-size="12" x="52" y="373" dominant-baseline="central" fill="#633806" font-family="Arial">+ stop()</text>

<!-- SessionManager -->
<rect x="250" y="266" width="185" height="115" rx="6" fill="#FAEEDA" stroke="#854F0B" stroke-width="0.5"/>
<rect x="250" y="266" width="185" height="22" rx="6" fill="#854F0B" opacity="0.5"/>
<rect x="250" y="276" width="185" height="12" fill="#854F0B" opacity="0.5"/>
<text font-size="14" font-weight="500" x="342" y="280" text-anchor="middle" dominant-baseline="central" fill="#412402" font-family="Arial">SessionManager</text>
<text font-size="12" x="262" y="295" dominant-baseline="central" fill="#633806" font-family="Arial">{static, final}</text>
<line x1="250" y1="302" x2="435" y2="302" stroke="#FAC775" stroke-width="0.5"/>
<text font-size="12" x="262" y="317" dominant-baseline="central" fill="#633806" font-family="Arial">- currentUser : User {static}</text>
<line x1="250" y1="328" x2="435" y2="328" stroke="#FAC775" stroke-width="0.5"/>
<text font-size="12" x="262" y="343" dominant-baseline="central" fill="#633806" font-family="Arial">+ login(User)  + logout()</text>
<text font-size="12" x="262" y="358" dominant-baseline="central" fill="#633806" font-family="Arial">+ getUser() : User</text>
<text font-size="12" x="262" y="373" dominant-baseline="central" fill="#633806" font-family="Arial">+ isLoggedIn() : boolean</text>

<!-- ThemeManager -->
<rect x="455" y="266" width="185" height="130" rx="6" fill="#FAEEDA" stroke="#854F0B" stroke-width="0.5"/>
<rect x="455" y="266" width="185" height="22" rx="6" fill="#854F0B" opacity="0.5"/>
<rect x="455" y="276" width="185" height="12" fill="#854F0B" opacity="0.5"/>
<text font-size="14" font-weight="500" x="547" y="280" text-anchor="middle" dominant-baseline="central" fill="#412402" font-family="Arial">ThemeManager</text>
<text font-size="12" x="467" y="295" dominant-baseline="central" fill="#633806" font-family="Arial">{static, final}</text>
<line x1="455" y1="302" x2="640" y2="302" stroke="#FAC775" stroke-width="0.5"/>
<text font-size="12" x="467" y="317" dominant-baseline="central" fill="#633806" font-family="Arial">- currentTheme : Theme</text>
<text font-size="12" x="467" y="332" dominant-baseline="central" fill="#633806" font-family="Arial">- activeScene : Scene</text>
<line x1="455" y1="342" x2="640" y2="342" stroke="#FAC775" stroke-width="0.5"/>
<text font-size="12" x="467" y="357" dominant-baseline="central" fill="#633806" font-family="Arial">+ init(Scene)</text>
<text font-size="12" x="467" y="372" dominant-baseline="central" fill="#633806" font-family="Arial">+ toggle()  + getCurrent()</text>
<text font-size="12" x="467" y="387" dominant-baseline="central" fill="#633806" font-family="Arial">«enum» Theme: DARK, LIGHT</text>

<!-- SessionManager uses User -->
<path d="M342 266 L342 230 L540 230 L540 172" stroke="#888780" stroke-width="0.8" stroke-dasharray="4 3" fill="none" marker-end="url(#open)"/>

<!-- ═══ DB ═══ -->

<!-- DatabaseManager -->
<rect x="40" y="526" width="230" height="160" rx="6" fill="#FAECE7" stroke="#993C1D" stroke-width="0.5"/>
<rect x="40" y="526" width="230" height="22" rx="6" fill="#993C1D" opacity="0.5"/>
<rect x="40" y="536" width="230" height="12" fill="#993C1D" opacity="0.5"/>
<text font-size="14" font-weight="500" x="155" y="540" text-anchor="middle" dominant-baseline="central" fill="#4A1B0C" font-family="Arial">DatabaseManager</text>
<text font-size="12" x="52" y="555" dominant-baseline="central" fill="#712B13" font-family="Arial">{singleton, final}</text>
<line x1="40" y1="562" x2="270" y2="562" stroke="#F0997B" stroke-width="0.5"/>
<text font-size="12" x="52" y="577" dominant-baseline="central" fill="#712B13" font-family="Arial">- instance {static}</text>
<text font-size="12" x="52" y="592" dominant-baseline="central" fill="#712B13" font-family="Arial">- databaseConnection : Connection</text>
<line x1="40" y1="602" x2="270" y2="602" stroke="#F0997B" stroke-width="0.5"/>
<text font-size="12" x="52" y="617" dominant-baseline="central" fill="#712B13" font-family="Arial">+ getInstance() : DatabaseManager</text>
<text font-size="12" x="52" y="632" dominant-baseline="central" fill="#712B13" font-family="Arial">+ authenticate() : Optional&lt;User&gt;</text>
<text font-size="12" x="52" y="647" dominant-baseline="central" fill="#712B13" font-family="Arial">+ register() : boolean</text>
<text font-size="12" x="52" y="662" dominant-baseline="central" fill="#712B13" font-family="Arial">+ loadAll()  insert()  update()  delete()</text>
<text font-size="12" x="52" y="677" dominant-baseline="central" fill="#712B13" font-family="Arial">+ close()</text>

<!-- DB uses Task/User -->
<path d="M270 630 L320 630 L320 226" stroke="#888780" stroke-width="0.8" stroke-dasharray="4 3" fill="none" marker-end="url(#open)"/>

<!-- ═══ REPOSITORY ═══ -->

<!-- TaskRepository interface -->
<rect x="40" y="710" width="240" height="218" rx="6" fill="#E6F1FB" stroke="#185FA5" stroke-width="0.5"/>
<rect x="40" y="710" width="240" height="22" rx="6" fill="#185FA5" opacity="0.6"/>
<rect x="40" y="720" width="240" height="12" fill="#185FA5" opacity="0.6"/>
<text font-size="12" x="160" y="722" text-anchor="middle" dominant-baseline="central" fill="#042C53" font-family="Arial">«interface»</text>
<text font-size="14" font-weight="500" x="160" y="739" text-anchor="middle" dominant-baseline="central" fill="#042C53" font-family="Arial">TaskRepository</text>
<line x1="40" y1="750" x2="280" y2="750" stroke="#85B7EB" stroke-width="0.5"/>
<text font-size="12" x="52" y="765" dominant-baseline="central" fill="#0C447C" font-family="Arial">+ loadAll(List&lt;Task&gt;)</text>
<text font-size="12" x="52" y="780" dominant-baseline="central" fill="#0C447C" font-family="Arial">+ add(Task) : Task</text>
<text font-size="12" x="52" y="795" dominant-baseline="central" fill="#0C447C" font-family="Arial">+ update(Task)</text>
<text font-size="12" x="52" y="810" dominant-baseline="central" fill="#0C447C" font-family="Arial">+ delete(int)</text>
<text font-size="12" x="52" y="825" dominant-baseline="central" fill="#0C447C" font-family="Arial">+ findById(int) : Optional&lt;Task&gt;</text>
<text font-size="12" x="52" y="840" dominant-baseline="central" fill="#0C447C" font-family="Arial">+ findAll() : List&lt;Task&gt;</text>
<text font-size="12" x="52" y="855" dominant-baseline="central" fill="#0C447C" font-family="Arial">+ findByCompleted(boolean)</text>
<text font-size="12" x="52" y="870" dominant-baseline="central" fill="#0C447C" font-family="Arial">+ findDueToday() : List&lt;Task&gt;</text>
<text font-size="12" x="52" y="885" dominant-baseline="central" fill="#0C447C" font-family="Arial">+ findByCategory(String)</text>
<text font-size="12" x="52" y="900" dominant-baseline="central" fill="#0C447C" font-family="Arial">+ findByPriority(Priority)</text>
<text font-size="12" x="52" y="915" dominant-baseline="central" fill="#0C447C" font-family="Arial">+ getStrategyName() : String</text>

<!-- HashMapTaskRepo -->
<rect x="40" y="960" width="188" height="130" rx="6" fill="#F1EFE8" stroke="#5F5E5A" stroke-width="0.5"/>
<rect x="40" y="960" width="188" height="22" rx="6" fill="#444441" opacity="0.5"/>
<rect x="40" y="970" width="188" height="12" fill="#444441" opacity="0.5"/>
<text font-size="14" font-weight="500" x="134" y="974" text-anchor="middle" dominant-baseline="central" fill="#2C2C2A" font-family="Arial">HashMapTaskRepo</text>
<line x1="40" y1="982" x2="228" y2="982" stroke="#B4B2A9" stroke-width="0.5"/>
<text font-size="12" x="52" y="997" dominant-baseline="central" fill="#444441" font-family="Arial">- taskStore : Map&lt;Integer,Task&gt;</text>
<text font-size="12" x="52" y="1012" dominant-baseline="central" fill="#444441" font-family="Arial">- databaseManager</text>
<text font-size="12" x="52" y="1027" dominant-baseline="central" fill="#444441" font-family="Arial">- dbEnabled : boolean</text>
<line x1="40" y1="1037" x2="228" y2="1037" stroke="#B4B2A9" stroke-width="0.5"/>
<text font-size="12" x="52" y="1052" dominant-baseline="central" fill="#444441" font-family="Arial">+ setTestMode(boolean)</text>
<text font-size="12" x="52" y="1067" dominant-baseline="central" fill="#444441" font-family="Arial">implements all methods</text>
<text font-size="12" x="52" y="1082" dominant-baseline="central" fill="#444441" font-family="Arial">O(1) lookup/insert/delete</text>

<!-- LinkedListTaskRepo -->
<rect x="248" y="960" width="196" height="130" rx="6" fill="#F1EFE8" stroke="#5F5E5A" stroke-width="0.5"/>
<rect x="248" y="960" width="196" height="22" rx="6" fill="#444441" opacity="0.5"/>
<rect x="248" y="970" width="196" height="12" fill="#444441" opacity="0.5"/>
<text font-size="14" font-weight="500" x="346" y="974" text-anchor="middle" dominant-baseline="central" fill="#2C2C2A" font-family="Arial">LinkedListTaskRepo</text>
<line x1="248" y1="982" x2="444" y2="982" stroke="#B4B2A9" stroke-width="0.5"/>
<text font-size="12" x="260" y="997" dominant-baseline="central" fill="#444441" font-family="Arial">- taskStore : LinkedList&lt;Task&gt;</text>
<text font-size="12" x="260" y="1012" dominant-baseline="central" fill="#444441" font-family="Arial">- databaseManager</text>
<text font-size="12" x="260" y="1027" dominant-baseline="central" fill="#444441" font-family="Arial">- dbEnabled : boolean</text>
<line x1="248" y1="1037" x2="444" y2="1037" stroke="#B4B2A9" stroke-width="0.5"/>
<text font-size="12" x="260" y="1052" dominant-baseline="central" fill="#444441" font-family="Arial">+ setTestMode(boolean)</text>
<text font-size="12" x="260" y="1067" dominant-baseline="central" fill="#444441" font-family="Arial">implements all methods</text>
<text font-size="12" x="260" y="1082" dominant-baseline="central" fill="#444441" font-family="Arial">O(1) tail-insert</text>

<!-- ArrayListTaskRepo -->
<rect x="464" y="960" width="176" height="130" rx="6" fill="#F1EFE8" stroke="#5F5E5A" stroke-width="0.5"/>
<rect x="464" y="960" width="176" height="22" rx="6" fill="#444441" opacity="0.5"/>
<rect x="464" y="970" width="176" height="12" fill="#444441" opacity="0.5"/>
<text font-size="14" font-weight="500" x="552" y="974" text-anchor="middle" dominant-baseline="central" fill="#2C2C2A" font-family="Arial">ArrayListTaskRepo</text>
<line x1="464" y1="982" x2="640" y2="982" stroke="#B4B2A9" stroke-width="0.5"/>
<text font-size="12" x="476" y="997" dominant-baseline="central" fill="#444441" font-family="Arial">- taskStore : ArrayList&lt;Task&gt;</text>
<text font-size="12" x="476" y="1012" dominant-baseline="central" fill="#444441" font-family="Arial">- databaseManager</text>
<text font-size="12" x="476" y="1027" dominant-baseline="central" fill="#444441" font-family="Arial">- dbEnabled : boolean</text>
<line x1="464" y1="1037" x2="640" y2="1037" stroke="#B4B2A9" stroke-width="0.5"/>
<text font-size="12" x="476" y="1052" dominant-baseline="central" fill="#444441" font-family="Arial">+ setTestMode(boolean)</text>
<text font-size="12" x="476" y="1067" dominant-baseline="central" fill="#444441" font-family="Arial">implements all methods</text>
<text font-size="12" x="476" y="1082" dominant-baseline="central" fill="#444441" font-family="Arial">O(1) amortised append</text>

<!-- implements arrows -->
<line x1="134" y1="960" x2="134" y2="928" stroke="#888780" stroke-width="0.8" stroke-dasharray="5 3" marker-end="url(#tri)"/>
<path d="M346 960 L346 928 L160 928" stroke="#888780" stroke-width="0.8" stroke-dasharray="5 3" fill="none" marker-end="url(#tri)"/>
<path d="M552 960 L552 928 L160 928" stroke="#888780" stroke-width="0.8" stroke-dasharray="5 3" fill="none" marker-end="url(#tri)"/>

<!-- repo uses db -->
<path d="M228 1010 L310 1010 L310 686" stroke="#888780" stroke-width="0.8" stroke-dasharray="4 3" fill="none" marker-end="url(#open)"/>

<!-- ═══ CONTROLLER ═══ -->

<!-- MainLayoutController -->
<rect x="40" y="1116" width="240" height="170" rx="6" fill="#FBEAF0" stroke="#993556" stroke-width="0.5"/>
<rect x="40" y="1116" width="240" height="22" rx="6" fill="#993556" opacity="0.5"/>
<rect x="40" y="1126" width="240" height="12" fill="#993556" opacity="0.5"/>
<text font-size="14" font-weight="500" x="160" y="1130" text-anchor="middle" dominant-baseline="central" fill="#4B1528" font-family="Arial">MainLayoutController</text>
<text font-size="12" x="52" y="1145" dominant-baseline="central" fill="#72243E" font-family="Arial">implements Initializable</text>
<line x1="40" y1="1152" x2="280" y2="1152" stroke="#ED93B1" stroke-width="0.5"/>
<text font-size="12" x="52" y="1167" dominant-baseline="central" fill="#72243E" font-family="Arial">- activeRepository : TaskRepository {static}</text>
<text font-size="12" x="52" y="1182" dominant-baseline="central" fill="#72243E" font-family="Arial">- currentViewName : String</text>
<line x1="40" y1="1192" x2="280" y2="1192" stroke="#ED93B1" stroke-width="0.5"/>
<text font-size="12" x="52" y="1207" dominant-baseline="central" fill="#72243E" font-family="Arial">+ getActiveRepository() {static}</text>
<text font-size="12" x="52" y="1222" dominant-baseline="central" fill="#72243E" font-family="Arial">+ initialize(URL, ResourceBundle)</text>
<text font-size="12" x="52" y="1237" dominant-baseline="central" fill="#72243E" font-family="Arial">- activateRepositoryStrategy()</text>
<text font-size="12" x="52" y="1252" dominant-baseline="central" fill="#72243E" font-family="Arial">- loadViewIntoContentArea()</text>
<text font-size="12" x="52" y="1267" dominant-baseline="central" fill="#72243E" font-family="Arial">+ updatePerfMetric(String)</text>
<text font-size="12" x="52" y="1282" dominant-baseline="central" fill="#72243E" font-family="Arial">onNav…() handlers</text>

<!-- LoginController -->
<rect x="300" y="1116" width="175" height="125" rx="6" fill="#FBEAF0" stroke="#993556" stroke-width="0.5"/>
<rect x="300" y="1116" width="175" height="22" rx="6" fill="#993556" opacity="0.5"/>
<rect x="300" y="1126" width="175" height="12" fill="#993556" opacity="0.5"/>
<text font-size="14" font-weight="500" x="387" y="1130" text-anchor="middle" dominant-baseline="central" fill="#4B1528" font-family="Arial">LoginController</text>
<line x1="300" y1="1148" x2="475" y2="1148" stroke="#ED93B1" stroke-width="0.5"/>
<text font-size="12" x="312" y="1163" dominant-baseline="central" fill="#72243E" font-family="Arial">@FXML fields (TabPane,</text>
<text font-size="12" x="312" y="1178" dominant-baseline="central" fill="#72243E" font-family="Arial">TextField, PasswordField…)</text>
<line x1="300" y1="1188" x2="475" y2="1188" stroke="#ED93B1" stroke-width="0.5"/>
<text font-size="12" x="312" y="1203" dominant-baseline="central" fill="#72243E" font-family="Arial">- onLogin()</text>
<text font-size="12" x="312" y="1218" dominant-baseline="central" fill="#72243E" font-family="Arial">- onRegister()</text>
<text font-size="12" x="312" y="1233" dominant-baseline="central" fill="#72243E" font-family="Arial">- playShakeAnimation()</text>

<!-- SettingsController -->
<rect x="495" y="1116" width="145" height="105" rx="6" fill="#FBEAF0" stroke="#993556" stroke-width="0.5"/>
<rect x="495" y="1116" width="145" height="22" rx="6" fill="#993556" opacity="0.5"/>
<rect x="495" y="1126" width="145" height="12" fill="#993556" opacity="0.5"/>
<text font-size="14" font-weight="500" x="567" y="1130" text-anchor="middle" dominant-baseline="central" fill="#4B1528" font-family="Arial">SettingsController</text>
<line x1="495" y1="1148" x2="640" y2="1148" stroke="#ED93B1" stroke-width="0.5"/>
<text font-size="12" x="507" y="1163" dominant-baseline="central" fill="#72243E" font-family="Arial">@FXML lblUser, tglTheme</text>
<line x1="495" y1="1173" x2="640" y2="1173" stroke="#ED93B1" stroke-width="0.5"/>
<text font-size="12" x="507" y="1188" dominant-baseline="central" fill="#72243E" font-family="Arial">+ initialize()</text>
<text font-size="12" x="507" y="1203" dominant-baseline="central" fill="#72243E" font-family="Arial">- onToggleTheme()</text>
<text font-size="12" x="507" y="1218" dominant-baseline="central" fill="#72243E" font-family="Arial">- onLogout()</text>

<!-- AllTasksController -->
<rect x="40" y="1310" width="215" height="150" rx="6" fill="#FBEAF0" stroke="#993556" stroke-width="0.5"/>
<rect x="40" y="1310" width="215" height="22" rx="6" fill="#993556" opacity="0.5"/>
<rect x="40" y="1320" width="215" height="12" fill="#993556" opacity="0.5"/>
<text font-size="14" font-weight="500" x="147" y="1324" text-anchor="middle" dominant-baseline="central" fill="#4B1528" font-family="Arial">AllTasksController</text>
<text font-size="12" x="52" y="1339" dominant-baseline="central" fill="#72243E" font-family="Arial">implements Initializable</text>
<line x1="40" y1="1348" x2="255" y2="1348" stroke="#ED93B1" stroke-width="0.5"/>
<text font-size="12" x="52" y="1363" dominant-baseline="central" fill="#72243E" font-family="Arial">- tableData : ObservableList&lt;Task&gt;</text>
<text font-size="12" x="52" y="1378" dominant-baseline="central" fill="#72243E" font-family="Arial">- currentlyEditingTask : Task</text>
<line x1="40" y1="1388" x2="255" y2="1388" stroke="#ED93B1" stroke-width="0.5"/>
<text font-size="12" x="52" y="1403" dominant-baseline="central" fill="#72243E" font-family="Arial">+ initialize(…)</text>
<text font-size="12" x="52" y="1418" dominant-baseline="central" fill="#72243E" font-family="Arial">- onSave()  onNewTask()</text>
<text font-size="12" x="52" y="1433" dominant-baseline="central" fill="#72243E" font-family="Arial">- confirmAndDeleteTask()</text>
<text font-size="12" x="52" y="1448" dominant-baseline="central" fill="#72243E" font-family="Arial">- applySearchAndFilter()</text>

<!-- DashboardController -->
<rect x="275" y="1310" width="185" height="120" rx="6" fill="#FBEAF0" stroke="#993556" stroke-width="0.5"/>
<rect x="275" y="1310" width="185" height="22" rx="6" fill="#993556" opacity="0.5"/>
<rect x="275" y="1320" width="185" height="12" fill="#993556" opacity="0.5"/>
<text font-size="14" font-weight="500" x="367" y="1324" text-anchor="middle" dominant-baseline="central" fill="#4B1528" font-family="Arial">DashboardController</text>
<text font-size="12" x="287" y="1339" dominant-baseline="central" fill="#72243E" font-family="Arial">implements Initializable</text>
<line x1="275" y1="1348" x2="460" y2="1348" stroke="#ED93B1" stroke-width="0.5"/>
<text font-size="12" x="287" y="1363" dominant-baseline="central" fill="#72243E" font-family="Arial">@FXML lblTotal, lblDone…</text>
<text font-size="12" x="287" y="1378" dominant-baseline="central" fill="#72243E" font-family="Arial">@FXML listToday, listRecent</text>
<line x1="275" y1="1388" x2="460" y2="1388" stroke="#ED93B1" stroke-width="0.5"/>
<text font-size="12" x="287" y="1403" dominant-baseline="central" fill="#72243E" font-family="Arial">+ initialize(…)</text>
<text font-size="12" x="287" y="1418" dominant-baseline="central" fill="#72243E" font-family="Arial">- buildTaskListCell()</text>

<!-- CategoriesController -->
<rect x="40" y="1480" width="195" height="100" rx="6" fill="#FBEAF0" stroke="#993556" stroke-width="0.5"/>
<rect x="40" y="1480" width="195" height="22" rx="6" fill="#993556" opacity="0.5"/>
<rect x="40" y="1490" width="195" height="12" fill="#993556" opacity="0.5"/>
<text font-size="14" font-weight="500" x="137" y="1494" text-anchor="middle" dominant-baseline="central" fill="#4B1528" font-family="Arial">CategoriesController</text>
<text font-size="12" x="52" y="1509" dominant-baseline="central" fill="#72243E" font-family="Arial">implements Initializable</text>
<line x1="40" y1="1518" x2="235" y2="1518" stroke="#ED93B1" stroke-width="0.5"/>
<text font-size="12" x="52" y="1533" dominant-baseline="central" fill="#72243E" font-family="Arial">@FXML container : VBox</text>
<line x1="40" y1="1543" x2="235" y2="1543" stroke="#ED93B1" stroke-width="0.5"/>
<text font-size="12" x="52" y="1558" dominant-baseline="central" fill="#72243E" font-family="Arial">+ initialize(…)</text>
<text font-size="12" x="52" y="1573" dominant-baseline="central" fill="#72243E" font-family="Arial">- buildCategoryCard()</text>

<!-- TodayController -->
<rect x="255" y="1480" width="185" height="100" rx="6" fill="#FBEAF0" stroke="#993556" stroke-width="0.5"/>
<rect x="255" y="1480" width="185" height="22" rx="6" fill="#993556" opacity="0.5"/>
<rect x="255" y="1490" width="185" height="12" fill="#993556" opacity="0.5"/>
<text font-size="14" font-weight="500" x="347" y="1494" text-anchor="middle" dominant-baseline="central" fill="#4B1528" font-family="Arial">TodayController</text>
<text font-size="12" x="267" y="1509" dominant-baseline="central" fill="#72243E" font-family="Arial">implements Initializable</text>
<line x1="255" y1="1518" x2="440" y2="1518" stroke="#ED93B1" stroke-width="0.5"/>
<text font-size="12" x="267" y="1533" dominant-baseline="central" fill="#72243E" font-family="Arial">@FXML lblDate, listView</text>
<line x1="255" y1="1543" x2="440" y2="1543" stroke="#ED93B1" stroke-width="0.5"/>
<text font-size="12" x="267" y="1558" dominant-baseline="central" fill="#72243E" font-family="Arial">+ initialize(…)</text>
<text font-size="12" x="267" y="1573" dominant-baseline="central" fill="#72243E" font-family="Arial">- buildCheckBoxListCell()</text>

<!-- MainLayout holds TaskRepository (blue = strategy) -->
<path d="M160 1116 L160 928" stroke="#378ADD" stroke-width="1.2" fill="none" marker-end="url(#blue-arrow)"/>
<text font-size="12" x="168" y="1060" fill="#378ADD" font-family="Arial">holds strategy</text>

<!-- MainLayout uses DatabaseManager -->
<path d="M280 1160 L310 1160 L310 686" stroke="#888780" stroke-width="0.8" stroke-dasharray="4 3" fill="none" marker-end="url(#open)"/>

<!-- LoginController uses SessionManager -->
<path d="M387 1116 L387 395" stroke="#888780" stroke-width="0.8" stroke-dasharray="4 3" fill="none" marker-end="url(#open)"/>

<!-- SettingsController uses ThemeManager -->
<path d="M547 1116 L547 396" stroke="#888780" stroke-width="0.8" stroke-dasharray="4 3" fill="none" marker-end="url(#open)"/>

<!-- Child controllers -> MainLayoutController -->
<path d="M147 1310 L147 1286" stroke="#888780" stroke-width="0.8" stroke-dasharray="4 3" fill="none" marker-end="url(#open)"/>
<path d="M367 1310 L367 1286" stroke="#888780" stroke-width="0.8" stroke-dasharray="4 3" fill="none" marker-end="url(#open)"/>
<path d="M137 1480 L137 1460" stroke="#888780" stroke-width="0.8" stroke-dasharray="4 3" fill="none" marker-end="url(#open)"/>
<path d="M347 1480 L347 1460" stroke="#888780" stroke-width="0.8" stroke-dasharray="4 3" fill="none" marker-end="url(#open)"/>

<!-- ═══ LEGEND ═══ -->
<rect x="460" y="1310" width="180" height="168" rx="6" fill="none" stroke="#D3D1C7" stroke-width="0.5"/>
<text font-size="12" x="550" y="1328" text-anchor="middle" fill="#888780" font-family="Arial">Legend</text>
<line x1="475" y1="1348" x2="520" y2="1348" stroke="#888780" stroke-width="0.8" stroke-dasharray="5 3" marker-end="url(#tri)"/>
<text font-size="12" x="528" y="1352" fill="#444441" font-family="Arial">realizes interface</text>
<line x1="475" y1="1373" x2="520" y2="1373" stroke="#378ADD" stroke-width="1.2" marker-end="url(#blue-arrow)"/>
<text font-size="12" x="528" y="1377" fill="#444441" font-family="Arial">holds / strategy</text>
<line x1="475" y1="1398" x2="520" y2="1398" stroke="#888780" stroke-width="0.8" stroke-dasharray="4 3" marker-end="url(#open)"/>
<text font-size="12" x="528" y="1402" fill="#444441" font-family="Arial">uses / depends</text>
<rect x="475" y="1415" width="12" height="12" rx="2" fill="#EEEDFE" stroke="#534AB7" stroke-width="0.8"/>
<text font-size="12" x="494" y="1425" fill="#444441" font-family="Arial">model</text>
<rect x="530" y="1415" width="12" height="12" rx="2" fill="#FAEEDA" stroke="#854F0B" stroke-width="0.8"/>
<text font-size="12" x="549" y="1425" fill="#444441" font-family="Arial">app</text>
<rect x="475" y="1437" width="12" height="12" rx="2" fill="#FAECE7" stroke="#993C1D" stroke-width="0.8"/>
<text font-size="12" x="494" y="1447" fill="#444441" font-family="Arial">db</text>
<rect x="530" y="1437" width="12" height="12" rx="2" fill="#E6F1FB" stroke="#185FA5" stroke-width="0.8"/>
<text font-size="12" x="549" y="1447" fill="#444441" font-family="Arial">«interface»</text>
<rect x="475" y="1459" width="12" height="12" rx="2" fill="#F1EFE8" stroke="#5F5E5A" stroke-width="0.8"/>
<text font-size="12" x="494" y="1469" fill="#444441" font-family="Arial">repo impl</text>
<rect x="530" y="1459" width="12" height="12" rx="2" fill="#FBEAF0" stroke="#993556" stroke-width="0.8"/>
<text font-size="12" x="549" y="1469" fill="#444441" font-family="Arial">controller</text>
</svg>
